<?xml version="1.0" standalone="no"?>
<!DOCTYPE svg PUBLIC "-//W3C//DTD SVG 20010904//EN"
 "http://www.w3.org/TR/2001/REC-SVG-20010904/DTD/svg10.dtd">
<svg version="1.0" xmlns="http://www.w3.org/2000/svg"
 width="1171.000000pt" height="1171.000000pt" viewBox="0 0 1171.000000 1171.000000"
 preserveAspectRatio="xMidYMid meet">
<metadata>
Created by potrace 1.14, written by Peter Selinger 2001-2017
</metadata>
<g transform="translate(0.000000,1171.000000) scale(0.100000,-0.100000)"
fill="#000000" stroke="none">
<path d="M4852 11612 c-50 -53 -100 -108 -112 -122 -11 -13 -49 -54 -83 -90
-68 -73 -243 -262 -268 -291 -14 -17 -155 -169 -224 -243 -16 -18 -70 -77
-120 -131 -49 -54 -104 -113 -121 -132 -27 -28 -97 -104 -232 -252 -13 -14
-61 -66 -107 -116 -45 -49 -93 -102 -106 -116 -131 -143 -224 -244 -275 -299
-33 -36 -83 -89 -110 -119 -27 -30 -77 -84 -111 -120 -34 -36 -60 -68 -58 -70
4 -3 35 -6 220 -15 223 -12 320 -18 322 -19 1 -1 -5 -29 -12 -62 -8 -33 -17
-73 -20 -90 -8 -49 -15 -85 -36 -186 -11 -52 -21 -106 -24 -120 -3 -13 -7 -35
-10 -49 -7 -34 -14 -69 -21 -105 -3 -16 -21 -109 -41 -205 -19 -96 -37 -186
-40 -200 -2 -14 -17 -90 -34 -170 -16 -80 -32 -156 -34 -170 -3 -14 -7 -38
-10 -55 -4 -16 -22 -108 -41 -204 -20 -96 -38 -184 -40 -195 -19 -98 -24 -124
-29 -146 -3 -14 -12 -59 -20 -100 -8 -41 -17 -86 -20 -100 -3 -14 -7 -36 -10
-50 -6 -32 -10 -53 -36 -179 -11 -57 -23 -116 -25 -130 -3 -14 -7 -33 -9 -41
-2 -8 -7 -31 -10 -50 -3 -19 -17 -89 -31 -155 -13 -66 -27 -131 -29 -145 -3
-14 -7 -36 -10 -50 -3 -14 -7 -36 -10 -50 -7 -38 -10 -54 -71 -355 -31 -154
-58 -289 -60 -300 -2 -11 -6 -31 -9 -45 -7 -34 -14 -69 -21 -105 -3 -16 -23
-118 -45 -225 -22 -107 -42 -207 -44 -222 -3 -15 -27 -137 -54 -270 -27 -134
-51 -256 -54 -273 -3 -16 -21 -109 -41 -205 -19 -96 -37 -186 -40 -200 -2 -14
-9 -45 -15 -70 -5 -25 -12 -61 -16 -80 -3 -19 -10 -55 -15 -80 -5 -25 -12 -56
-14 -70 -3 -14 -10 -50 -16 -80 -6 -30 -13 -68 -16 -85 -3 -16 -9 -46 -14 -65
-5 -19 -11 -51 -14 -70 -3 -19 -7 -44 -10 -55 -2 -11 -7 -40 -10 -65 -3 -25
-8 -54 -10 -65 -2 -11 -7 -42 -10 -70 -4 -27 -9 -68 -12 -90 -2 -22 -7 -62 -9
-90 -3 -27 -8 -86 -12 -130 -14 -157 -7 -617 11 -725 2 -14 7 -46 10 -71 24
-176 43 -262 93 -434 99 -341 268 -657 488 -915 47 -54 226 -231 276 -272 57
-47 150 -118 179 -138 12 -8 32 -22 44 -31 48 -37 218 -135 321 -186 61 -30
118 -58 128 -64 44 -24 264 -104 384 -139 133 -39 331 -83 433 -96 30 -4 66
-8 80 -10 180 -26 642 -25 865 1 89 11 138 18 215 31 47 8 101 17 120 20 19 3
53 10 75 15 22 5 54 12 70 15 17 3 55 12 85 21 30 8 66 17 79 20 13 2 31 8 40
12 9 5 19 9 24 9 16 1 127 35 222 69 244 86 498 206 780 367 66 38 278 179
384 256 374 272 752 644 1017 1000 196 263 359 542 481 820 129 294 257 728
299 1010 3 19 7 42 9 50 2 8 7 44 11 80 3 36 8 67 10 70 8 15 19 246 18 410 0
168 -9 341 -19 380 -2 8 -7 40 -10 70 -3 30 -8 62 -10 70 -2 8 -7 31 -10 50
-17 103 -85 335 -134 460 -139 354 -363 691 -641 970 -108 108 -220 205 -299
260 -20 14 -44 32 -54 41 -9 9 -75 50 -145 92 -270 161 -567 274 -888 336
-108 21 -117 22 -339 47 -135 15 -1196 26 -1210 13 -6 -7 -29 -98 -38 -154 -3
-16 -12 -64 -21 -105 -8 -41 -17 -86 -20 -100 -2 -14 -14 -74 -26 -135 -12
-60 -24 -121 -26 -135 -3 -14 -7 -32 -9 -40 -2 -8 -7 -31 -10 -50 -3 -19 -19
-100 -35 -180 -30 -152 -58 -298 -66 -340 -2 -14 -7 -36 -10 -50 -3 -14 -8
-36 -10 -50 -3 -14 -9 -47 -14 -75 -6 -27 -12 -61 -15 -75 -3 -14 -9 -48 -15
-76 -6 -28 -13 -64 -16 -80 -3 -16 -12 -63 -21 -104 -20 -97 -21 -104 -33
-172 -14 -73 -19 -97 -25 -128 -3 -14 -15 -72 -25 -130 -11 -58 -22 -112 -25
-120 -2 -8 -7 -31 -10 -50 -5 -30 -12 -71 -40 -210 -3 -14 -8 -38 -11 -55 -3
-16 -9 -48 -14 -70 -5 -22 -10 -43 -10 -47 0 -4 30 4 68 18 133 51 306 100
387 110 16 2 37 6 45 9 8 3 36 7 62 10 25 3 56 8 68 10 40 8 234 19 295 18
235 -7 448 -111 593 -293 175 -217 223 -510 136 -842 -82 -319 -347 -635 -669
-800 -77 -39 -187 -84 -225 -92 -14 -3 -56 -12 -95 -21 -93 -22 -338 -28 -430
-11 -375 70 -579 302 -619 704 -7 70 -8 294 -1 357 15 139 17 155 50 345 3 14
18 93 35 175 17 83 33 161 36 175 10 51 46 236 50 255 9 46 35 172 39 195 3
14 12 59 20 100 21 102 24 120 31 155 3 17 27 140 55 275 27 135 52 259 55
275 2 17 7 37 9 45 2 8 7 31 10 50 3 19 8 42 10 50 2 8 6 26 9 40 2 14 45 230
95 480 49 250 92 466 95 480 2 14 9 46 15 73 6 26 14 64 17 85 3 20 10 54 15
75 6 21 12 50 14 65 2 15 11 63 21 107 9 44 18 87 19 95 1 8 6 33 10 55 9 47
6 35 41 200 14 72 28 137 29 145 1 8 5 29 8 45 4 17 9 46 12 65 3 19 12 64 20
100 8 36 16 76 19 90 2 14 7 36 10 50 3 14 8 36 10 50 3 14 12 59 20 100 8 41
17 86 19 100 3 14 12 59 21 100 8 41 17 88 20 104 3 16 16 83 30 150 14 66 27
132 30 146 2 14 20 104 40 200 19 96 37 186 40 200 2 14 11 59 20 100 9 41 18
91 21 110 3 20 9 49 13 65 10 34 4 34 222 21 225 -13 340 -17 340 -12 0 6 -67
110 -208 326 -52 80 -100 154 -106 165 -7 11 -41 65 -77 120 -78 118 -158 242
-299 460 -57 88 -144 223 -195 300 -166 255 -400 616 -416 643 -9 15 -68 107
-132 204 l-115 177 -90 -97z"/>
</g>
</svg>
