<?xml version="1.0" encoding="UTF-8" standalone="no"?>
<svg
   data-name="Layer 1"
   width="1142.71"
   height="866.78"
   viewBox="0 0 1142.71 866.78"
   version="1.1"
   id="svg423"
   sodipodi:docname="undraw_missed_chances_k-3-cq (1).svg"
   inkscape:version="1.1.1 (3bf5ae0d25, 2021-09-20)"
   xmlns:inkscape="http://www.inkscape.org/namespaces/inkscape"
   xmlns:sodipodi="http://sodipodi.sourceforge.net/DTD/sodipodi-0.dtd"
   xmlns:xlink="http://www.w3.org/1999/xlink"
   xmlns="http://www.w3.org/2000/svg"
   xmlns:svg="http://www.w3.org/2000/svg">
  <sodipodi:namedview
     id="namedview425"
     pagecolor="#505050"
     bordercolor="#eeeeee"
     borderopacity="1"
     inkscape:pageshadow="0"
     inkscape:pageopacity="0"
     inkscape:pagecheckerboard="0"
     showgrid="false"
     inkscape:zoom="0.82950688"
     inkscape:cx="114.52587"
     inkscape:cy="440.62323"
     inkscape:window-width="2560"
     inkscape:window-height="1377"
     inkscape:window-x="1916"
     inkscape:window-y="1089"
     inkscape:window-maximized="1"
     inkscape:current-layer="svg423" />
  <defs
     id="defs13">
    <linearGradient
       id="7231b667-12f4-4b5a-a8d7-5fbb399f1f5b-38"
       x1="919.5"
       y1="866.87"
       x2="919.5"
       y2="345.03"
       gradientUnits="userSpaceOnUse">
      <stop
         offset="0"
         stop-color="gray"
         stop-opacity="0.25"
         id="stop2" />
      <stop
         offset="0.54"
         stop-color="gray"
         stop-opacity="0.12"
         id="stop4" />
      <stop
         offset="1"
         stop-color="gray"
         stop-opacity="0.1"
         id="stop6" />
    </linearGradient>
    <linearGradient
       id="e499654a-3440-43b2-9cd0-3bdc531f1cd6-39"
       x1="212.02"
       y1="596.16"
       x2="490.73"
       y2="596.16"
       xlink:href="#7231b667-12f4-4b5a-a8d7-5fbb399f1f5b-38" />
    <linearGradient
       id="57b4d689-d23d-4167-9afb-3be6c96fe0f2-40"
       x1="325.27"
       y1="618.36"
       x2="326.52"
       y2="618.36"
       xlink:href="#7231b667-12f4-4b5a-a8d7-5fbb399f1f5b-38" />
    <linearGradient
       id="eac37dd2-c948-4d6f-8054-18dfe5a953f0-41"
       x1="326.25"
       y1="619.33"
       x2="327.5"
       y2="619.33"
       xlink:href="#7231b667-12f4-4b5a-a8d7-5fbb399f1f5b-38" />
    <linearGradient
       id="9e04d387-eaa7-45ec-87d4-96689ba1bc0d-42"
       x1="326.25"
       y1="618.36"
       x2="327.5"
       y2="618.36"
       xlink:href="#7231b667-12f4-4b5a-a8d7-5fbb399f1f5b-38" />
  </defs>
  <title
     id="title15">missed chances</title>
  <ellipse
     cx="566.3"
     cy="835.34"
     rx="434.84"
     ry="31.44"
     fill="#c5ea81"
     opacity="0.1"
     id="ellipse17"
     style="opacity:0.59057072" />
  <path
     d="M1158,707.62A86.27,86.27,0,0,1,1140.76,727c-1.84,1.52-3.75,3-5.69,4.38-24.84,17.84-58.1,25.68-90.41,30.76C981.93,772,917.89,773.92,854.12,775.8,800.43,777.4,746.71,779,693,780.06c-76.77,1.54-153.55,2-230.2,0q-62.85-1.65-125.6-5.82c-77.62-5.31-157.24-14.69-224.81-47.45a231.88,231.88,0,0,1-35.31-20.9c-18.35-13.37-33.46-29.55-41.54-48.71-13-30.8-6.13-65.41,8.72-95.61,9-18.26,20.69-35.36,32.82-52.31,7.18-10.06,14.52-20.06,21.5-30.21.73-1,1.44-2.07,2.14-3.11,1.35-2,2.69-4,4-6,5.48-8.43,10.67-17.13,15.43-26A294.25,294.25,0,0,0,133,416.72a237.37,237.37,0,0,0,9-26c1.66-5.95,3.06-11.92,4.14-17.89,5.91-32.51,2.79-65-14.71-94.41-.17-.29-.35-.6-.53-.89l-.22-.35c-4.94-8.11-10.9-15.75-16.76-23.42-7-9.2-13.89-18.46-18.74-28.59-12.76-26.77-10-56.87-5.36-85.46,6.19-38,17.71-79,53.38-102.69,37.05-24.66,89.65-23.41,135.64-14.59C350.3,36.1,416.29,64.77,482.92,90.64s136.39,49.53,209.65,52.06c64.69,2.25,140.14-14.55,183.07-58.25,41.7-42.43,120.09-45.66,176.61-20,53.92,24.45,88.79,76.21,86.17,127.89-3.82,75.27-76.36,133-119.64,198.86-1.94,2.94-3.83,5.95-5.63,9-17,28.73-27.47,61.72-14.93,91.63,16.82,40.07,66.76,59.62,108.88,84.79C1127.44,588.77,1146,602.24,1158,620c.45.64.86,1.27,1.27,1.9C1176.2,648.1,1174.92,681.56,1158,707.62Z"
     transform="translate(-28.64 -16.61)"
     fill="#c5ea81"
     opacity="0.1"
     id="path19"
     style="opacity:0.48138958" />
  <path
     d="M104.71,469.92c5.48-8.43,10.67-17.13,15.43-26A294.25,294.25,0,0,0,133,416.72a237.37,237.37,0,0,0,9-26c1.66-5.95,3.06-11.92,4.14-17.89,5.91-32.51,2.79-65-14.71-94.41-.17-.29-.35-.6-.53-.89l-17-23.77H240.05v83.76h35.09V588.77h45.28v-81.5h54.33v81.5H420V449.54h2.26V377.1h43v72.44h99.61V558.2h55.47v-34h34v34H709.8V236.74h72.44V185.8h12.45v50.94h20.37V337.48h36.23V253.72h30.56v-86h63.38v86H975.8v83.76h37.35v62.71c-17,28.73-27.47,61.72-14.93,91.63,16.82,40.07,66.76,59.62,108.88,84.79C1127.44,588.77,1146,602.24,1158,620v87.65A86.27,86.27,0,0,1,1140.76,727c-1.84,1.52-3.75,3-5.69,4.38-24.84,17.84-58.1,25.68-90.41,30.76C981.93,772,917.89,773.92,854.12,775.8,800.43,777.4,746.71,779,693,780.06H462.78q-62.85-1.65-125.6-5.82c-77.62-5.31-157.24-14.69-224.81-47.45a231.88,231.88,0,0,1-35.31-20.9V509.26c7.18-10.06,14.52-20.06,21.5-30.21Z"
     transform="translate(-28.64 -16.61)"
     fill="#c5ea81"
     opacity="0.3"
     id="path21"
     style="opacity:0.59057072" />
  <path
     d="M146.1,372.79v17.89H142C143.62,384.73,145,378.76,146.1,372.79Z"
     transform="translate(-28.64 -16.61)"
     fill="#fff"
     opacity="0.4"
     id="path23"
     style="opacity:0.59057072" />
  <rect
     x="204.96"
     y="363.52"
     width="47.54"
     height="27.17"
     transform="translate(428.82 737.59) rotate(-180)"
     fill="#fff"
     opacity="0.4"
     id="rect25"
     style="opacity:0.59057072" />
  <path
     d="M146.1,416.72v27.16h-26A294.25,294.25,0,0,0,133,416.72Z"
     transform="translate(-28.64 -16.61)"
     fill="#fff"
     opacity="0.4"
     id="path27"
     style="opacity:0.59057072" />
  <rect
     x="204.96"
     y="416.72"
     width="47.54"
     height="27.17"
     transform="translate(428.82 843.99) rotate(-180)"
     fill="#fff"
     opacity="0.4"
     id="rect29"
     style="opacity:0.59057072" />
  <polygon
     points="76.07 453.3 117.46 453.3 117.46 480.47 69.92 480.47 69.92 462.44 76.07 453.3"
     fill="#fff"
     opacity="0.4"
     id="polygon31"
     style="opacity:0.59057072" />
  <rect
     x="204.96"
     y="469.92"
     width="47.54"
     height="27.17"
     transform="translate(428.82 950.39) rotate(-180)"
     fill="#fff"
     opacity="0.4"
     id="rect33"
     style="opacity:0.59057072" />
  <rect
     x="69.92"
     y="506.51"
     width="47.54"
     height="27.17"
     fill="#fff"
     opacity="0.4"
     id="rect35"
     style="opacity:0.59057072" />
  <rect
     x="204.96"
     y="523.12"
     width="47.54"
     height="27.17"
     transform="translate(428.82 1056.79) rotate(-180)"
     fill="#fff"
     opacity="0.4"
     id="rect37"
     style="opacity:0.59057072" />
  <rect
     x="69.92"
     y="559.71"
     width="47.54"
     height="27.17"
     fill="#fff"
     opacity="0.4"
     id="rect39"
     style="opacity:0.59057072" />
  <rect
     x="204.96"
     y="576.32"
     width="47.54"
     height="27.17"
     transform="translate(428.82 1163.19) rotate(-180)"
     fill="#fff"
     opacity="0.4"
     id="rect41"
     style="opacity:0.59057072" />
  <rect
     x="69.92"
     y="612.91"
     width="47.54"
     height="27.17"
     fill="#fff"
     opacity="0.4"
     id="rect43"
     style="opacity:0.59057072" />
  <rect
     x="204.96"
     y="629.52"
     width="47.54"
     height="27.17"
     transform="translate(428.82 1269.59) rotate(-180)"
     fill="#fff"
     opacity="0.4"
     id="rect45"
     style="opacity:0.59057072" />
  <rect
     x="69.92"
     y="666.11"
     width="47.54"
     height="27.17"
     fill="#fff"
     opacity="0.4"
     id="rect47"
     style="opacity:0.59057072" />
  <rect
     x="204.96"
     y="682.72"
     width="47.54"
     height="27.17"
     transform="translate(428.82 1375.99) rotate(-180)"
     fill="#fff"
     opacity="0.4"
     id="rect49"
     style="opacity:0.59057072" />
  <rect
     x="263.48"
     y="599.32"
     width="110.93"
     height="13.58"
     fill="#fff"
     opacity="0.4"
     id="rect51"
     style="opacity:0.59057072" />
  <rect
     x="263.48"
     y="619.7"
     width="110.93"
     height="13.58"
     fill="#fff"
     opacity="0.4"
     id="rect53"
     style="opacity:0.59057072" />
  <rect
     x="263.48"
     y="640.07"
     width="110.93"
     height="13.58"
     fill="#fff"
     opacity="0.4"
     id="rect55"
     style="opacity:0.59057072" />
  <rect
     x="553.25"
     y="606.12"
     width="110.93"
     height="13.58"
     fill="#fff"
     opacity="0.4"
     id="rect57"
     style="opacity:0.59057072" />
  <rect
     x="553.25"
     y="626.49"
     width="110.93"
     height="13.58"
     fill="#fff"
     opacity="0.4"
     id="rect59"
     style="opacity:0.59057072" />
  <rect
     x="553.25"
     y="646.86"
     width="110.93"
     height="13.58"
     fill="#fff"
     opacity="0.4"
     id="rect61"
     style="opacity:0.59057072" />
  <rect
     x="263.48"
     y="660.45"
     width="110.93"
     height="13.58"
     fill="#fff"
     opacity="0.4"
     id="rect63"
     style="opacity:0.59057072" />
  <rect
     x="263.48"
     y="680.82"
     width="110.93"
     height="13.58"
     fill="#fff"
     opacity="0.4"
     id="rect65"
     style="opacity:0.59057072" />
  <rect
     x="263.48"
     y="701.2"
     width="110.93"
     height="13.58"
     fill="#fff"
     opacity="0.4"
     id="rect67"
     style="opacity:0.59057072" />
  <rect
     x="415.15"
     y="458.97"
     width="30.56"
     height="39.62"
     fill="#fff"
     opacity="0.4"
     id="rect69"
     style="opacity:0.59057072" />
  <rect
     x="510.58"
     y="475.58"
     width="30.56"
     height="39.62"
     transform="translate(1023.08 974.16) rotate(-180)"
     fill="#fff"
     opacity="0.4"
     id="rect71"
     style="opacity:0.59057072" />
  <rect
     x="415.15"
     y="522.35"
     width="30.56"
     height="39.62"
     fill="#fff"
     opacity="0.4"
     id="rect73"
     style="opacity:0.59057072" />
  <rect
     x="510.58"
     y="538.97"
     width="30.56"
     height="39.62"
     transform="translate(1023.08 1100.94) rotate(-180)"
     fill="#fff"
     opacity="0.4"
     id="rect75"
     style="opacity:0.59057072" />
  <rect
     x="415.15"
     y="585.74"
     width="30.56"
     height="39.62"
     fill="#fff"
     opacity="0.4"
     id="rect77"
     style="opacity:0.59057072" />
  <rect
     x="510.58"
     y="602.35"
     width="30.56"
     height="39.62"
     transform="translate(1023.08 1227.71) rotate(-180)"
     fill="#fff"
     opacity="0.4"
     id="rect79"
     style="opacity:0.59057072" />
  <rect
     x="415.15"
     y="649.13"
     width="30.56"
     height="39.62"
     fill="#fff"
     opacity="0.4"
     id="rect81"
     style="opacity:0.59057072" />
  <rect
     x="510.58"
     y="665.74"
     width="30.56"
     height="39.62"
     transform="translate(1023.08 1354.49) rotate(-180)"
     fill="#fff"
     opacity="0.4"
     id="rect83"
     style="opacity:0.59057072" />
  <rect
     x="707.15002"
     y="246.17"
     width="40.75"
     height="52.07"
     fill="#ffffff"
     opacity="0.4"
     id="rect85"
     style="opacity:0.590571" />
  <rect
     x="707.15002"
     y="320.87"
     width="40.75"
     height="52.07"
     fill="#ffffff"
     opacity="0.4"
     id="rect87"
     style="opacity:0.590571" />
  <rect
     x="707.15002"
     y="395.57999"
     width="40.75"
     height="52.07"
     fill="#ffffff"
     opacity="0.4"
     id="rect89"
     style="opacity:0.590571" />
  <rect
     x="707.15002"
     y="470.29001"
     width="40.75"
     height="52.07"
     fill="#ffffff"
     opacity="0.4"
     id="rect91"
     style="opacity:0.590571" />
  <rect
     x="707.15002"
     y="544.98999"
     width="40.75"
     height="52.07"
     fill="#ffffff"
     opacity="0.4"
     id="rect93"
     style="opacity:0.590571" />
  <rect
     x="707.15002"
     y="619.70001"
     width="40.75"
     height="52.07"
     fill="#ffffff"
     opacity="0.4"
     id="rect95"
     style="opacity:0.590571" />
  <rect
     x="809.63"
     y="352.57"
     width="151.68"
     height="44.14"
     fill="#fff"
     opacity="0.4"
     id="rect97"
     style="opacity:0.59057072" />
  <rect
     x="810.19"
     y="447.65"
     width="151.68"
     height="44.14"
     fill="#fff"
     opacity="0.4"
     id="rect99"
     style="opacity:0.59057072" />
  <rect
     x="810.76"
     y="542.73"
     width="151.68"
     height="44.14"
     fill="#fff"
     opacity="0.4"
     id="rect101"
     style="opacity:0.59057072" />
  <rect
     x="811.32"
     y="637.81"
     width="151.68"
     height="44.14"
     fill="#fff"
     opacity="0.4"
     id="rect103"
     style="opacity:0.59057072" />
  <path
     d="M131.39,277.49v.89c-.17-.29-.35-.6-.53-.89Z"
     transform="translate(-28.64 -16.61)"
     fill="#fff"
     opacity="0.4"
     id="path105"
     style="opacity:0.59057072" />
  <path
     d="M1158,620v16.34H1107.1v-59.7C1127.44,588.77,1146,602.24,1158,620Z"
     transform="translate(-28.64 -16.61)"
     fill="#fff"
     opacity="0.4"
     id="path107"
     style="opacity:0.59057072" />
  <path
     d="M1158,665.74v41.88A86.27,86.27,0,0,1,1140.76,727c-1.84,1.52-3.75,3-5.69,4.38h-28V665.74Z"
     transform="translate(-28.64 -16.61)"
     fill="#fff"
     opacity="0.4"
     id="path109"
     style="opacity:0.59057072" />
  <path
     d="M376.66,221.67h-7.79a5.45,5.45,0,0,0,0-10.9H305.78a5.45,5.45,0,0,0,0,10.9h7.79a5.46,5.46,0,0,0,0,10.91h-10.9a5.45,5.45,0,1,0,0,10.9h63.08a5.45,5.45,0,0,0,0-10.9h10.91a5.46,5.46,0,0,0,0-10.91Z"
     transform="translate(-28.64 -16.61)"
     fill="#c5ea81"
     opacity="0.1"
     id="path111"
     style="opacity:0.59057072" />
  <path
     d="M655.11,358.63h-7.79a5.45,5.45,0,0,0,0-10.9H584.23a5.45,5.45,0,0,0,0,10.9H592a5.46,5.46,0,0,0,0,10.91h-10.9a5.45,5.45,0,1,0,0,10.9H644.2a5.45,5.45,0,0,0,0-10.9h10.91a5.46,5.46,0,0,0,0-10.91Z"
     transform="translate(-28.64 -16.61)"
     fill="#c5ea81"
     opacity="0.1"
     id="path113"
     style="opacity:0.59057072" />
  <path
     d="M1129.38,179.79h-7.79a5.45,5.45,0,1,0,0-10.9H1058.5a5.45,5.45,0,0,0,0,10.9h7.79a5.45,5.45,0,0,0,0,10.9h-10.9a5.46,5.46,0,0,0,0,10.91h63.08a5.46,5.46,0,1,0,0-10.91h10.91a5.45,5.45,0,0,0,0-10.9Z"
     transform="translate(-28.64 -16.61)"
     fill="#c5ea81"
     opacity="0.1"
     id="path115"
     style="opacity:0.59057072" />
  <path
     d="M326.52,617.91c-.81.57-1.25.9-1.25.9A5.22,5.22,0,0,0,326.52,617.91Z"
     transform="translate(-28.64 -16.61)"
     fill="url(#57b4d689-d23d-4167-9afb-3be6c96fe0f2-40)"
     id="path255"
     style="opacity:0.59057072" />
  <path
     d="M327.5,618.87l-1.25.91A5.28,5.28,0,0,0,327.5,618.87Z"
     transform="translate(-28.64 -16.61)"
     fill="url(#eac37dd2-c948-4d6f-8054-18dfe5a953f0-41)"
     id="path257"
     style="opacity:0.59057072" />
  <path
     d="M327.5,617.91c-.81.57-1.25.9-1.25.9A5.22,5.22,0,0,0,327.5,617.91Z"
     transform="translate(-28.64 -16.61)"
     fill="url(#9e04d387-eaa7-45ec-87d4-96689ba1bc0d-42)"
     id="path259"
     style="opacity:0.59057072" />
  <path
     d="M706.63,754.23s6.22,8.13-2.87,20.41-16.58,22.64-13.55,30.29c0,0,13.71-22.8,24.87-23.12S718.91,767.94,706.63,754.23Z"
     transform="translate(-28.64 -16.61)"
     fill="#c5ea81"
     id="path367"
     style="opacity:0.59057072" />
  <path
     d="M706.63,754.23a10,10,0,0,1,1.27,2.55c10.89,12.79,16.7,24.73,6.23,25-9.75.28-21.45,17.72-24.25,22.12a9,9,0,0,0,.33,1s13.71-22.8,24.87-23.12S718.91,767.94,706.63,754.23Z"
     transform="translate(-28.64 -16.61)"
     opacity="0.1"
     id="path369"
     style="opacity:0.59057072" />
  <path
     d="M718.19,764.59c0,2.87-.32,5.19-.71,5.19s-.72-2.32-.72-5.19.4-1.51.8-1.51S718.19,761.73,718.19,764.59Z"
     transform="translate(-28.64 -16.61)"
     fill="#ffd037"
     id="path371"
     style="opacity:0.59057072" />
  <path
     d="M722.16,768c-2.51,1.37-4.7,2.2-4.89,1.85s1.69-1.74,4.2-3.11,1.53-.37,1.72,0S724.67,766.64,722.16,768Z"
     transform="translate(-28.64 -16.61)"
     fill="#ffd037"
     id="path373"
     style="opacity:0.59057072" />
  <path
     d="M673.79,754.23s-6.22,8.13,2.87,20.41,16.58,22.64,13.55,30.29c0,0-13.71-22.8-24.87-23.12S661.51,767.94,673.79,754.23Z"
     transform="translate(-28.64 -16.61)"
     fill="#c5ea81"
     id="path375"
     style="opacity:0.59057072" />
  <path
     d="M673.79,754.23a10,10,0,0,0-1.27,2.55c-10.89,12.79-16.69,24.73-6.22,25,9.75.28,21.44,17.72,24.24,22.12a9,9,0,0,1-.33,1s-13.71-22.8-24.87-23.12S661.51,767.94,673.79,754.23Z"
     transform="translate(-28.64 -16.61)"
     opacity="0.1"
     id="path377"
     style="opacity:0.59057072" />
  <path
     d="M662.23,764.59c0,2.87.32,5.19.72,5.19s.72-2.32.72-5.19-.41-1.51-.8-1.51S662.23,761.73,662.23,764.59Z"
     transform="translate(-28.64 -16.61)"
     fill="#ffd037"
     id="path379"
     style="opacity:0.59057072" />
  <path
     d="M658.26,768c2.52,1.37,4.71,2.2,4.9,1.85s-1.7-1.74-4.21-3.11-1.52-.37-1.71,0S655.75,766.64,658.26,768Z"
     transform="translate(-28.64 -16.61)"
     fill="#ffd037"
     id="path381"
     style="opacity:0.59057072" />
  <path
     d="M664.21,803.87s17.39-.54,22.63-4.27,26.74-8.18,28-2.2,26.12,29.76,6.5,29.92-45.61-3.06-50.84-6.25S664.21,803.87,664.21,803.87Z"
     transform="translate(-28.64 -16.61)"
     fill="#a8a8a8"
     id="path383"
     style="opacity:0.59057072" />
  <path
     d="M721.73,825.23c-19.63.16-45.61-3.05-50.84-6.24-4-2.42-5.57-11.13-6.1-15.14l-.58,0s1.1,14,6.33,17.2,31.21,6.41,50.84,6.25c5.66-.05,7.62-2.06,7.51-5.05C728.11,824.07,725.94,825.2,721.73,825.23Z"
     transform="translate(-28.64 -16.61)"
     opacity="0.2"
     id="path385"
     style="opacity:0.59057072" />
  <path
     d="M630.69,816.63a9.26,9.26,0,0,0,3-4.58c.39-1.81-.39-4-2.12-4.65-2-.75-4,.6-5.6,2s-3.39,2.92-5.45,2.63a8.28,8.28,0,0,0,2.56-7.76,3.26,3.26,0,0,0-.71-1.58c-1.08-1.15-3-.65-4.33.26-4.11,2.89-5.26,8.47-5.28,13.5-.42-1.81-.07-3.7-.08-5.56s-.52-3.92-2.09-4.92a6.2,6.2,0,0,0-3.18-.75c-1.85-.07-3.91.11-5.17,1.47-1.57,1.68-1.16,4.5.2,6.34s3.44,3,5.35,4.29a11.7,11.7,0,0,1,3.82,3.65,3,3,0,0,1,.29.65h11.59A32.2,32.2,0,0,0,630.69,816.63Z"
     transform="translate(-28.64 -16.61)"
     fill="#c5ea81"
     id="path387"
     style="opacity:0.59057072" />
  <path
     d="M552.13,810.14s-11.12-37.73,2.08-65.5A59.59,59.59,0,0,0,559,707.25a101.21,101.21,0,0,0-5.29-17.55"
     transform="translate(-28.64 -16.61)"
     fill="none"
     stroke="#535461"
     stroke-miterlimit="10"
     stroke-width="2"
     id="path389"
     style="opacity:0.59057072" />
  <path
     d="M562,672.15c0,4.62-8.38,18-8.38,18s-8.37-13.41-8.37-18a8.38,8.38,0,0,1,16.75,0Z"
     transform="translate(-28.64 -16.61)"
     fill="#c5ea81"
     id="path391"
     style="opacity:0.59057072" />
  <path
     d="M575.79,697.76c-2.52,3.89-16.83,10.59-16.83,10.59s.26-15.81,2.77-19.69a8.37,8.37,0,0,1,14.06,9.1Z"
     transform="translate(-28.64 -16.61)"
     fill="#c5ea81"
     id="path393"
     style="opacity:0.59057072" />
  <path
     d="M575.18,741.53c-4.13,2.09-19.87.65-19.87.65s8.2-13.52,12.33-15.6a8.37,8.37,0,1,1,7.54,14.95Z"
     transform="translate(-28.64 -16.61)"
     fill="#c5ea81"
     id="path395"
     style="opacity:0.59057072" />
  <path
     d="M567.27,774.55c-3.72,2.75-19.48,4-19.48,4s5.8-14.71,9.52-17.46a8.38,8.38,0,0,1,10,13.47Z"
     transform="translate(-28.64 -16.61)"
     fill="#c5ea81"
     id="path397"
     style="opacity:0.59057072" />
  <path
     d="M541.38,709.25c3.31,3.22,18.77,6.56,18.77,6.56s-3.79-15.35-7.1-18.57a8.37,8.37,0,1,0-11.67,12Z"
     transform="translate(-28.64 -16.61)"
     fill="#c5ea81"
     id="path399"
     style="opacity:0.59057072" />
  <path
     d="M532.61,748c4.13,2.09,19.87.65,19.87.65s-8.2-13.52-12.33-15.6a8.37,8.37,0,1,0-7.54,15Z"
     transform="translate(-28.64 -16.61)"
     fill="#c5ea81"
     id="path401"
     style="opacity:0.59057072" />
  <path
     d="M529.25,786.78c3.72,2.75,19.48,4,19.48,4s-5.8-14.71-9.52-17.46a8.37,8.37,0,1,0-10,13.46Z"
     transform="translate(-28.64 -16.61)"
     fill="#c5ea81"
     id="path403"
     style="opacity:0.59057072" />
  <path
     d="M562,672.15c0,4.62-8.38,18-8.38,18s-8.37-13.41-8.37-18a8.38,8.38,0,0,1,16.75,0Z"
     transform="translate(-28.64 -16.61)"
     fill="#c5ea81"
     id="path405"
     style="opacity:0.59057072" />
  <path
     d="M575.79,697.76c-2.52,3.89-16.83,10.59-16.83,10.59s.26-15.81,2.77-19.69a8.37,8.37,0,0,1,14.06,9.1Z"
     transform="translate(-28.64 -16.61)"
     fill="#c5ea81"
     id="path407"
     style="opacity:0.59057072" />
  <path
     d="M575.18,741.53c-4.13,2.09-19.87.65-19.87.65s8.2-13.52,12.33-15.6a8.37,8.37,0,1,1,7.54,14.95Z"
     transform="translate(-28.64 -16.61)"
     fill="#c5ea81"
     id="path409"
     style="opacity:0.59057072" />
  <path
     d="M567.27,774.55c-3.72,2.75-19.48,4-19.48,4s5.8-14.71,9.52-17.46a8.38,8.38,0,0,1,10,13.47Z"
     transform="translate(-28.64 -16.61)"
     fill="#c5ea81"
     id="path411"
     style="opacity:0.59057072" />
  <path
     d="M541.38,709.25c3.31,3.22,18.77,6.56,18.77,6.56s-3.79-15.35-7.1-18.57a8.37,8.37,0,1,0-11.67,12Z"
     transform="translate(-28.64 -16.61)"
     fill="#c5ea81"
     id="path413"
     style="opacity:0.59057072" />
  <path
     d="M532.61,748c4.13,2.09,19.87.65,19.87.65s-8.2-13.52-12.33-15.6a8.37,8.37,0,1,0-7.54,15Z"
     transform="translate(-28.64 -16.61)"
     fill="#c5ea81"
     id="path415"
     style="opacity:0.59057072" />
  <path
     d="M529.25,786.78c3.72,2.75,19.48,4,19.48,4s-5.8-14.71-9.52-17.46a8.37,8.37,0,1,0-10,13.46Z"
     transform="translate(-28.64 -16.61)"
     fill="#c5ea81"
     id="path417"
     style="opacity:0.59057072" />
  <path
     d="M525.86,807.76s13.53-2.69,17.14-6.27,19.85-9.85,21.65-5.38,24.36,19.71,9,22.4-36.08,3.58-40.59,1.79S525.86,807.76,525.86,807.76Z"
     transform="translate(-28.64 -16.61)"
     fill="#a8a8a8"
     id="path419"
     style="opacity:0.59057072" />
  <path
     d="M573.68,816.84c-15.34,2.69-36.09,3.58-40.6,1.79-3.44-1.36-5.82-7.92-6.77-11l-.45.1s2.71,10.75,7.22,12.54,25.26.89,40.6-1.79c4.42-.78,5.69-2.6,5.21-4.91C578.51,815.11,577,816.26,573.68,816.84Z"
     transform="translate(-28.64 -16.61)"
     opacity="0.2"
     id="path421"
     style="opacity:0.59057072" />
</svg>
