<?xml version="1.0" encoding="UTF-8" standalone="no"?>
<svg
   width="175.59mm"
   height="175.59mm"
   version="1.1"
   viewBox="0 0 175.59 175.59"
   id="svg14"
   sodipodi:docname="logo-square.svg"
   inkscape:version="1.1.1 (3bf5ae0d25, 2021-09-20)"
   xmlns:inkscape="http://www.inkscape.org/namespaces/inkscape"
   xmlns:sodipodi="http://sodipodi.sourceforge.net/DTD/sodipodi-0.dtd"
   xmlns:xlink="http://www.w3.org/1999/xlink"
   xmlns="http://www.w3.org/2000/svg"
   xmlns:svg="http://www.w3.org/2000/svg">
  <defs
     id="defs18">
    <linearGradient
       inkscape:collect="always"
       id="linearGradient2948">
      <stop
         style="stop-color:#ffffff;stop-opacity:1"
         offset="0"
         id="stop2944" />
      <stop
         style="stop-color:#c5ea81;stop-opacity:0;"
         offset="1"
         id="stop2946" />
    </linearGradient>
    <linearGradient
       inkscape:collect="always"
       xlink:href="#linearGradient2948"
       id="linearGradient2952"
       x1="77.807838"
       y1="207.25685"
       x2="73.557022"
       y2="19.7132"
       gradientUnits="userSpaceOnUse" />
  </defs>
  <sodipodi:namedview
     id="namedview16"
     pagecolor="#505050"
     bordercolor="#eeeeee"
     borderopacity="1"
     inkscape:pageshadow="0"
     inkscape:pageopacity="0"
     inkscape:pagecheckerboard="0"
     inkscape:document-units="mm"
     showgrid="false"
     inkscape:zoom="2.1668138"
     inkscape:cx="222.67719"
     inkscape:cy="436.35498"
     inkscape:window-width="2560"
     inkscape:window-height="1377"
     inkscape:window-x="1916"
     inkscape:window-y="1089"
     inkscape:window-maximized="1"
     inkscape:current-layer="svg14" />
  <text
     transform="matrix(0.26458,0,0,0.26458,-17.207,-60.707)"
     fill="#000000"
     font-family="'Frutiger LT Std 45 Light'"
     font-size="18.667px"
     font-weight="bold"
     style="line-height:1.25;white-space:pre;shape-inside:url(#rect2715)"
     xml:space="preserve"
     id="text2" />
  <g
     transform="translate(-20.9096,-86.5605)"
     id="g6">
    <path
       d="m 94.701,103.51 -0.74219,0.80664 -25.668,27.92 7.6387,0.41211 -12.766,63.824 c -2.464,12.269 -1.2618,22.403 3.7012,30.256 v 0.002 l 0.002,0.002 c 2.8922,4.527 6.9705,8.1286 12.172,10.783 l 0.002,0.002 -0.002,-0.002 c 5.2558,2.6564 10.929,3.9786 16.984,3.9786 12.003,0 22.984,-4.0641 32.809,-12.117 9.8239,-8.0524 15.964,-18.014 18.332,-29.801 2.3152,-11.522 0.19862,-21.517 -6.3594,-29.758 l -0.002,-0.004 c -6.5065,-8.2398 -15.607,-12.408 -26.986,-12.408 -1.7016,0 -7.2518,-0.32408 -10.939,0.0566 l -0.45312,0.0469 4.6113,-23.086 7.9648,0.41601 z m -0.23438,2.7637 17.295,26.693 -6.1055,-0.31836 -12.531,62.736 c -1.0781,5.3648 -0.97819,9.4944 0.53125,12.414 1.5096,2.92 4.4942,4.4121 8.4785,4.4121 3.4218,0 6.5874,-1.1743 9.3672,-3.4531 h 0.002 c 2.8298,-2.3299 4.6168,-5.215 5.291,-8.5273 v -0.006 c 0.6688,-3.4021 0.11555,-6.4011 -1.7324,-8.7734 -1.791,-2.4187 -4.4645,-3.6777 -7.7383,-3.6777 -2.03,0 -6.2922,0.53947 -9.668,2.0078 l 6.0117,-30.645 c 3.4199,-0.27178 8.3466,-0.0293 10.148,-0.0293 10.972,0 19.449,3.903 25.654,11.764 v 0.002 h 0.002 c 6.2574,7.8606 8.2651,17.223 6.0254,28.369 -2.293,11.414 -8.1798,20.982 -17.742,28.82 -9.562,7.8383 -20.112,11.732 -31.732,11.732 -5.8085,0 -11.192,-1.2567 -16.211,-3.793 l -0.002,-0.002 c -4.9658,-2.5348 -8.7876,-5.9202 -11.51,-10.18 l -0.002,-0.004 c -4.6753,-7.4004 -5.8766,-17.022 -3.4688,-29.01 l 13.15,-65.75 -5.998,-0.32227 z m 12.857,83.199 c 2.8654,0 4.886,0.97644 6.3789,2.998 l 0.006,0.01 0.008,0.008 c 1.5365,1.9683 2.0116,4.3486 1.4102,7.4082 -0.59773,2.9297 -2.133,5.4311 -4.7051,7.5488 -2.516,2.0619 -5.2478,3.0645 -8.2871,3.0645 -3.5901,0 -5.7542,-1.1429 -6.9688,-3.4922 -1.2146,-2.3493 -1.4151,-6.1244 -0.375,-11.299 l 0.56055,-2.8086 1.5918,-0.95508 c 2.8874,-1.7336 8.3907,-2.4824 10.381,-2.4824 z m -5.2148,-82.26 -7.4082,-3.7031 -19.002,32.432 7.6367,0.41211 -12.764,63.822 c -2.4646,12.27 -1.262,22.402 3.7012,30.256 v 0.002 l -3.6928,0.23829 c 2.8922,4.527 10.667,7.8943 15.869,10.549 l 0.002,0.002 c 5.2558,2.6564 10.925,3.9746 16.98,3.9746 12.003,0 22.984,-4.0641 32.809,-12.117 9.8239,-8.0524 15.964,-18.012 18.332,-29.799 2.3154,-11.523 0.19945,-21.519 -6.3594,-29.76 l -0.002,-0.002 c -6.5066,-8.2406 -20.613,-15.96 -31.993,-15.96 -1.7016,0 -2.2448,3.2254 -5.9325,3.6061 l -0.45313,0.0469 4.6113,-23.086 7.9648,0.41797 z m -0.23438,2.7656 17.295,26.693 -6.1055,-0.31835 -12.531,62.734 c -1.0786,5.3659 -0.9784,9.494 0.53125,12.414 1.5096,2.92 4.4942,4.4121 8.4785,4.4121 3.4218,0 6.5874,-1.1724 9.3672,-3.4512 l 0.002,-0.002 c 2.8298,-2.3299 4.6168,-5.215 5.291,-8.5274 v -0.004 c 0.6688,-3.4021 0.11555,-6.4031 -1.7324,-8.7754 -1.791,-2.4187 -4.4645,-3.6777 -7.7383,-3.6777 -2.03,0 -6.2922,0.53948 -9.668,2.0078 l 6.0117,-30.643 c 3.4199,-0.27178 8.3466,-0.0312 10.148,-0.0312 10.972,0 19.449,3.9049 25.654,11.766 l 0.002,0.002 c 6.2574,7.8607 8.2651,17.221 6.0254,28.367 -2.293,11.414 -8.1798,20.982 -17.742,28.82 -9.562,7.8383 -20.112,11.732 -31.732,11.732 -5.8086,0 -11.192,-1.2547 -16.211,-3.791 l -0.002,-0.002 c -4.9663,-2.5351 -8.7875,-5.9216 -11.51,-10.182 l -0.002,-0.002 c -4.6761,-7.4006 -5.8767,-17.023 -3.4688,-29.012 l 13.15,-65.748 -5.998,-0.32422 z m 12.857,83.197 c 2.8654,0 4.886,0.97645 6.3789,2.998 l 0.006,0.01 0.008,0.01 c 1.5365,1.9683 2.0116,4.3486 1.4102,7.4082 -0.59773,2.9297 -2.131,5.4292 -4.7031,7.5469 -2.5166,2.0631 -5.2489,3.0664 -8.2891,3.0664 -3.5901,0 -5.7522,-1.1429 -6.9668,-3.4922 -1.2146,-2.3493 -1.4151,-6.1264 -0.375,-11.301 l 0.56055,-2.8086 1.5898,-0.95508 c 2.8874,-1.7336 8.3906,-2.4824 10.381,-2.4824 z m -12.74,-84.579 -24.447,26.593 6.8181,0.36796 -12.957,64.785 c -2.4364,12.13 -1.2348,22.008 3.5855,29.636 2.8075,4.3944 6.7585,7.89 11.843,10.485 5.1377,2.5967 10.665,3.8846 16.597,3.8846 11.812,0 22.577,-3.9792 32.27,-11.925 9.6931,-7.9452 15.706,-17.71 18.037,-29.31 2.2776,-11.335 0.21552,-21.014 -6.1933,-29.065 -6.3562,-8.0514 -15.146,-12.088 -26.322,-12.088 -1.8009,0 -7.3023,-0.31539 -10.851,0.051 l -6.4586,32.918 c 3.1781,-1.9081 8.646,-2.6037 10.818,-2.6037 3.0719,0 5.4206,1.1196 7.0625,3.3431 1.6947,2.1709 2.2109,4.8623 1.5754,8.095 -0.63551,3.1224 -2.2966,5.8158 -4.9984,8.0403 -2.6482,2.1709 -5.5972,3.259 -8.8282,3.259 -7.5744,0 -10.295,-5.2686 -8.1764,-15.809 l 12.387,-62.015 7.0354,0.36796 z"
       color="#000000"
       style="-inkscape-stroke:none"
       id="path4" />
  </g>
  <path
     d="m 50.379,44.455 c 2.1029,0.1134 4.2058,0.22576 6.3086,0.33984 -4.4424,22.27 -8.9271,44.533 -13.346,66.807 -1.3059,7.304 -1.4957,14.954 0.96868,21.988 1.0971,3.1552 2.7974,6.1869 4.8571,8.6243 4.5876,5.4948 11.267,9.0523 18.167,10.533 5.7438,1.2134 11.674,0.96643 17.402,-0.13096 7.5429,-1.4831 14.627,-4.924 20.662,-9.5635 7.4488,-5.6472 13.631,-13.14 17.037,-21.898 2.6793,-6.9546 4.0786,-14.673 2.9631,-22.166 -1.1795,-7.97 -5.6799,-15.289 -11.964,-20.27 -4.4344,-3.515 -9.9838,-5.5658 -15.532,-6.205 -3.0542,-0.3852 -6.2261,-0.26534 -9.3641,-0.39445 -2.0176,-0.0359 -4.0629,-0.0454 -6.0363,0.11711 -2.0566,10.481 -4.1133,20.962 -6.1699,31.443 3.162,-1.4196 6.6501,-2.0244 10.098,-2.1504 2.824,-0.0648 5.721,1.1273 7.3976,3.457 2.0821,2.5118 2.4135,6.0386 1.6329,9.1147 -1.1761,4.9554 -5.226,8.9869 -10.005,10.579 -2.9835,0.89617 -6.3627,0.96466 -9.2207,-0.39062 -2.5153,-1.2176 -3.9123,-3.9342 -4.2332,-6.6182 -0.67368,-4.9258 0.82365,-9.7714 1.6876,-14.574 3.7737,-18.893 7.5471,-37.786 11.321,-56.679 2.1524,0.11163 4.3047,0.22542 6.457,0.33789 -5.9538,-9.1894 -11.908,-18.379 -17.861,-27.568 -7.7422,8.4219 -15.484,16.844 -23.227,25.266 z"
     color="#000000"
     fill="#b8da80"
     stroke-width="1.7"
     style="-inkscape-stroke:none;fill:#c5ea81;fill-opacity:1"
     id="path8" />
  <path
     d="m 50.379,44.455 c 2.1029,0.1134 4.2058,0.22576 6.3086,0.33984 -4.4424,22.27 -8.9271,44.533 -13.346,66.807 -1.3059,7.304 -1.4957,14.954 0.96868,21.988 1.0971,3.1552 2.7974,6.1869 4.8571,8.6243 4.5876,5.4948 11.267,9.0523 18.167,10.533 5.7438,1.2134 11.674,0.96643 17.402,-0.13096 7.5429,-1.4831 14.627,-4.924 20.662,-9.5635 7.4488,-5.6472 13.631,-13.14 17.037,-21.898 2.6793,-6.9546 4.0786,-14.673 2.9631,-22.166 -1.1795,-7.97 -5.6799,-15.289 -11.964,-20.27 -4.4344,-3.515 -9.9838,-5.5658 -15.532,-6.205 -3.0542,-0.3852 -6.2261,-0.26534 -9.3641,-0.39445 -2.0176,-0.0359 -4.0629,-0.0454 -6.0363,0.11711 -2.0566,10.481 -4.1133,20.962 -6.1699,31.443 3.162,-1.4196 6.6501,-2.0244 10.098,-2.1504 2.824,-0.0648 5.721,1.1273 7.3976,3.457 2.0821,2.5118 2.4135,6.0386 1.6329,9.1147 -1.1761,4.9554 -5.226,8.9869 -10.005,10.579 -2.9835,0.89617 -6.3627,0.96466 -9.2207,-0.39062 -2.5153,-1.2176 -3.9123,-3.9342 -4.2332,-6.6182 -0.67368,-4.9258 0.82365,-9.7714 1.6876,-14.574 3.7737,-18.893 7.5471,-37.786 11.321,-56.679 2.1524,0.11163 4.3047,0.22542 6.457,0.33789 -5.9538,-9.1894 -11.908,-18.379 -17.861,-27.568 -7.7422,8.4219 -15.484,16.844 -23.227,25.266 z"
     color="#000000"
     fill="#b8da80"
     stroke-width="1.7"
     style="fill:url(#linearGradient2952);fill-opacity:1;-inkscape-stroke:none"
     id="path8-5" />
</svg>
