<?xml version="1.0" encoding="UTF-8" standalone="no"?>
<!-- Created with Inkscape (http://www.inkscape.org/) -->

<svg
   width="210mm"
   height="297mm"
   viewBox="0 0 210 297"
   version="1.1"
   id="svg5"
   inkscape:version="1.1.1 (3bf5ae0d25, 2021-09-20)"
   sodipodi:docname="logo.svg"
   xmlns:inkscape="http://www.inkscape.org/namespaces/inkscape"
   xmlns:sodipodi="http://sodipodi.sourceforge.net/DTD/sodipodi-0.dtd"
   xmlns="http://www.w3.org/2000/svg"
   xmlns:svg="http://www.w3.org/2000/svg">
  <sodipodi:namedview
     id="namedview7"
     pagecolor="#505050"
     bordercolor="#eeeeee"
     borderopacity="1"
     inkscape:pageshadow="0"
     inkscape:pageopacity="0"
     inkscape:pagecheckerboard="0"
     inkscape:document-units="mm"
     showgrid="false"
     inkscape:zoom="0.70710678"
     inkscape:cx="632.86057"
     inkscape:cy="905.80379"
     inkscape:window-width="2560"
     inkscape:window-height="1377"
     inkscape:window-x="1916"
     inkscape:window-y="1089"
     inkscape:window-maximized="1"
     inkscape:current-layer="g13304" />
  <defs
     id="defs2">
    <rect
       x="220.61731"
       y="977.22157"
       width="53.740115"
       height="15.556349"
       id="rect2715" />
    <inkscape:perspective
       sodipodi:type="inkscape:persp3d"
       inkscape:vp_x="0 : 148.5 : 1"
       inkscape:vp_y="0 : 1000 : 0"
       inkscape:vp_z="210 : 148.5 : 1"
       inkscape:persp3d-origin="105 : 99 : 1"
       id="perspective15625" />
  </defs>
  <g
     inkscape:label="Layer 1"
     inkscape:groupmode="layer"
     id="layer1">
    <text
       xml:space="preserve"
       transform="scale(0.26458333)"
       id="text2713"
       style="font-weight:bold;font-size:18.6667px;line-height:1.25;font-family:'Frutiger LT Std 45 Light';-inkscape-font-specification:'Frutiger LT Std 45 Light,  Bold';white-space:pre;shape-inside:url(#rect2715);fill:#000000" />
    <g
       id="g13304"
       transform="translate(0,-24.268106)">
      <path
         id="text16297"
         style="font-weight:bold;font-size:3.09554px;line-height:1.25;font-family:'Bell MT';-inkscape-font-specification:'Bell MT Bold';fill:none;fill-opacity:1;stroke:#000000;stroke-width:5.2565;stroke-miterlimit:4;stroke-dasharray:none;stroke-opacity:1"
         d="m 94.589739,81.448123 -24.447351,26.593157 6.818101,0.36796 -12.957062,64.78531 c -2.436388,12.1299 -1.234752,22.00844 3.585458,29.63562 2.807497,4.39443 6.758494,7.89001 11.843364,10.48514 5.13771,2.59671 10.66465,3.88455 16.59709,3.88455 11.811771,0 22.577351,-3.97917 32.270441,-11.92489 9.69314,-7.9452 15.70621,-17.70968 18.03673,-29.30972 2.27764,-11.33512 0.21552,-21.01391 -6.19326,-29.06477 -6.35621,-8.05138 -15.1455,-12.08784 -26.32171,-12.08784 -1.80088,0 -8.87176,-0.31539 -12.42059,0.051 l -6.403831,32.65391 c 3.17808,-1.90811 10.160661,-2.33914 12.332381,-2.33914 3.0719,0 5.42055,1.11963 7.06253,3.34313 1.69469,2.17093 2.21088,4.86226 1.57537,8.09501 -0.63551,3.12236 -2.29657,5.81579 -4.99841,8.04034 -2.64822,2.17094 -5.59717,3.25903 -8.82818,3.25903 -7.574411,0 -10.295021,-5.26859 -8.176331,-15.80892 l 12.386681,-62.01514 7.0354,0.36796 z"
         sodipodi:nodetypes="ccccccssscsccscccscccc" />
      <g
         aria-label="UPbank"
         id="text7957"
         style="font-style:italic;font-weight:bold;font-size:33.5062px;line-height:1.25;font-family:TimeBurner;-inkscape-font-specification:'TimeBurner Bold Italic';stroke-width:2.64521">
        <path
           d="m 65.353926,259.31765 q -0.368568,1.84284 -1.40726,3.48465 -1.038692,1.60829 -2.479459,2.81452 -1.440766,1.20622 -3.216595,1.90985 -1.775828,0.70363 -3.618669,0.70363 -1.876347,0 -3.35062,-0.70363 -1.474273,-0.70363 -2.445953,-1.90985 -0.971679,-1.20623 -1.340248,-2.81452 -0.368568,-1.64181 0,-3.48465 l 3.149583,-15.81493 h 2.948546 l -3.149583,15.81493 q -0.26805,1.23973 -0.03351,2.34543 0.268049,1.0722 0.904667,1.90986 0.670124,0.80415 1.67531,1.27323 1.005186,0.46909 2.244915,0.46909 1.23973,0 2.412447,-0.46909 1.172717,-0.46908 2.144396,-1.27323 1.005186,-0.83766 1.67531,-1.90986 0.70363,-1.1057 0.97168,-2.34543 l 3.149583,-15.81493 h 2.915039 z"
           id="path828" />
        <path
           d="m 80.029586,243.50272 q 1.407261,0 2.546471,0.5361 1.139211,0.5361 1.876347,1.47428 0.737137,0.93817 1.038693,2.1779 0.301555,1.23973 0,2.6805 -0.26805,1.40726 -1.072199,2.68049 -0.770642,1.23973 -1.909853,2.1779 -1.105705,0.90467 -2.479459,1.44077 -1.340248,0.5361 -2.747508,0.5361 h -5.428004 l -2.144397,10.75549 h -2.915039 l 4.891905,-24.45953 z m -2.144396,10.75549 q 0.804148,0 1.574791,-0.30155 0.770642,-0.30156 1.40726,-0.83766 0.636618,-0.5361 1.072199,-1.23973 0.469086,-0.70363 0.636617,-1.50777 0.167531,-0.80415 -0.03351,-1.50778 -0.167531,-0.73714 -0.569605,-1.27324 -0.402075,-0.5361 -1.072199,-0.83765 -0.670124,-0.30156 -1.474272,-0.30156 H 73.99847 l -1.541285,7.80694 z"
           id="path830" />
        <path
           d="m 96.54813,250.87409 q 1.809335,0 3.283607,0.70363 1.474273,0.67012 2.412443,1.84284 0.97168,1.17272 1.34025,2.78101 0.36857,1.6083 0,3.41764 -0.36857,1.80933 -1.37375,3.38412 -1.00519,1.57479 -2.445955,2.78102 -1.40726,1.17271 -3.149583,1.87634 -1.742322,0.67013 -3.551657,0.67013 -1.809334,0 -3.250101,-0.67013 -1.440767,-0.70363 -2.412446,-1.87634 -0.938174,-1.20623 -1.306742,-2.78102 -0.368568,-1.57479 0,-3.38412 l 3.216595,-16.14999 h 2.848027 l -1.94336,9.68329 q 1.407261,-1.03869 3.015558,-1.6418 1.641804,-0.63662 3.317114,-0.63662 z m -0.569605,2.88153 q -1.206224,0 -2.378941,0.46909 -1.172716,0.43558 -2.11089,1.23973 -0.938174,0.80415 -1.641804,1.87634 -0.670124,1.0722 -0.904667,2.27843 -0.234544,1.20622 0,2.27842 0.268049,1.0722 0.871161,1.87634 0.636618,0.77065 1.608298,1.23973 1.005186,0.46909 2.211409,0.46909 1.239729,0 2.37894,-0.46909 1.172717,-0.46908 2.11089,-1.23973 0.97168,-0.80414 1.641804,-1.87634 0.670125,-1.0722 0.904665,-2.27842 0.23455,-1.20623 0,-2.27843 -0.23454,-1.07219 -0.871159,-1.87634 -0.636618,-0.80415 -1.608297,-1.23973 -0.97168,-0.46909 -2.211409,-0.46909 z"
           id="path832" />
        <path
           d="m 116.45072,250.80708 q 1.80933,0 3.2836,0.70363 1.47428,0.67012 2.41245,1.87634 0.97168,1.17272 1.34025,2.78102 0.36857,1.57479 0,3.38412 l -1.67531,8.37655 h -2.91504 l 0.36857,-1.87634 q -1.37376,1.03869 -2.98205,1.6418 -1.6083,0.56961 -3.31712,0.56961 -1.80933,0 -3.2501,-0.67013 -1.44077,-0.70363 -2.41245,-1.87635 -0.93817,-1.17271 -1.30674,-2.7475 -0.36857,-1.6083 0,-3.41764 0.36857,-1.80933 1.37376,-3.38412 1.00518,-1.6083 2.41244,-2.78102 1.44077,-1.20622 3.14959,-1.87634 1.70881,-0.70363 3.51815,-0.70363 z m -0.56961,2.88153 q -1.20622,0 -2.37894,0.46909 -1.13921,0.43558 -2.11089,1.23973 -0.93817,0.80414 -1.6418,1.87634 -0.67013,1.0722 -0.90467,2.27842 -0.23454,1.20623 0,2.27843 0.26805,1.07219 0.90467,1.87634 0.63661,0.77065 1.60829,1.23973 0.97168,0.46909 2.17791,0.46909 1.23973,0 2.41244,-0.46909 1.17272,-0.46908 2.11089,-1.23973 0.93818,-0.80415 1.6083,-1.87634 0.67013,-1.0722 0.90467,-2.27843 0.23454,-1.20622 0,-2.27842 -0.23454,-1.0722 -0.87116,-1.87634 -0.60311,-0.80415 -1.6083,-1.23973 -0.97168,-0.46909 -2.21141,-0.46909 z"
           id="path834" />
        <path
           d="m 137.25801,250.84058 q 1.80934,0 3.25011,0.70363 1.47427,0.67013 2.41244,1.84284 0.97168,1.17272 1.34025,2.78102 0.36857,1.6083 0,3.41763 l -1.67531,8.37655 h -2.88153 l 1.67531,-8.37655 q 0.23454,-1.20622 0,-2.27842 -0.23455,-1.0722 -0.87116,-1.87635 -0.60312,-0.80415 -1.6083,-1.23973 -0.97168,-0.46908 -2.21141,-0.46908 -1.20622,0 -2.37894,0.46908 -1.13921,0.43558 -2.11089,1.23973 -0.93818,0.80415 -1.64181,1.87635 -0.67012,1.0722 -0.90466,2.27842 l -1.67531,8.37655 h -2.84803 l 1.67531,-8.37655 q 0.36857,-1.80933 1.37375,-3.41763 1.00519,-1.6083 2.41245,-2.78102 1.44077,-1.17271 3.14958,-1.84284 1.70882,-0.70363 3.51815,-0.70363 z"
           id="path836" />
        <path
           d="m 150.4594,243.43571 h 2.84802 l -2.91504,14.67572 8.27604,-6.90228 h 4.02074 l -10.05186,8.37655 6.70124,8.37655 h -4.02074 l -5.52853,-6.90228 -1.37375,6.90228 h -2.84803 z"
           id="path838" />
      </g>
    </g>
  </g>
</svg>
